<svg version="1.1" id="Layer_1" xmlns="http://www.w3.org/2000/svg" xmlns:xlink="http://www.w3.org/1999/xlink" x="0px" y="0px"
	 width="100%" viewBox="0 0 800 800" enable-background="new 0 0 800 800" xml:space="preserve">
<path fill="#000000" opacity="1.000000" stroke="none" 
	d="
M324.096283,228.936218 
	C364.903900,227.454620 405.181183,229.552795 445.436066,231.169083 
	C475.700378,232.384262 505.964539,234.149902 536.194885,236.124420 
	C563.976868,237.939026 591.799500,237.682465 619.575623,238.985107 
	C649.060730,240.367920 678.563782,239.239197 708.032959,240.130493 
	C729.679260,240.785187 751.361572,240.183823 772.972717,241.876266 
	C778.271851,242.291260 783.775085,242.294678 789.469543,246.168350 
	C783.430908,248.976257 778.146912,250.026123 772.715576,250.186111 
	C757.561523,250.632446 742.404419,251.019897 727.245728,251.252228 
	C689.437622,251.831726 651.691895,255.217911 613.849243,253.983963 
	C587.877380,253.137100 561.869995,253.939270 535.921082,252.172714 
	C530.273621,251.788254 524.617920,251.525665 518.967590,251.181671 
	C516.487732,251.030716 514.918213,251.879684 514.210938,254.488678 
	C505.251495,287.540405 488.005157,316.689240 470.869202,345.854889 
	C459.899292,364.525818 448.817871,383.152924 435.200806,400.097870 
	C434.803406,400.592377 434.568359,401.217377 433.796295,402.619019 
	C441.753235,401.533417 449.036194,400.610474 456.296753,399.536224 
	C480.022003,396.025909 503.891327,393.893463 527.767151,391.745728 
	C549.810791,389.762756 571.815613,387.349670 593.839294,385.143494 
	C597.646973,384.762085 601.458923,384.271790 605.276917,384.184723 
	C609.622742,384.085571 611.133789,381.928253 611.860352,377.806763 
	C615.992249,354.368347 620.366821,330.972290 624.748230,307.578552 
	C625.730347,302.334961 627.296265,297.237976 629.571106,292.373505 
	C631.032043,289.249481 633.188110,286.871216 636.135315,285.064575 
	C643.278931,280.685699 650.556152,284.244781 651.079773,292.575897 
	C651.719299,302.751984 650.989380,312.879578 649.669434,322.977936 
	C647.422852,340.165924 643.239624,356.985596 640.039551,373.991943 
	C638.985657,379.592957 639.546509,380.306427 644.965149,379.708191 
	C672.600708,376.656952 700.367798,375.188965 728.056396,372.775879 
	C742.812073,371.489868 757.570923,370.233887 772.338379,369.094086 
	C777.481567,368.697113 782.667053,368.460541 787.774719,369.598694 
	C789.495850,369.982208 791.471802,369.992279 792.525269,372.428680 
	C788.393921,375.866943 783.296753,376.682251 778.289185,377.235962 
	C764.888672,378.717651 751.457886,379.931152 738.032837,381.184570 
	C705.880554,384.186493 673.730164,387.213593 641.562683,390.044098 
	C637.796814,390.375458 636.540100,391.913757 635.884399,395.420654 
	C625.602722,450.406586 613.213928,505.010712 606.142151,560.576782 
	C605.002441,569.532166 602.981506,578.287354 599.233093,586.557251 
	C598.212646,588.808655 597.265625,591.601868 594.016602,590.866150 
	C590.890015,590.158264 590.988586,587.299683 590.865723,584.784851 
	C590.033447,567.754211 591.839050,550.855469 593.381714,533.940979 
	C594.847229,517.872070 596.337463,501.804504 597.641113,485.722137 
	C599.269470,465.633240 602.644348,445.773804 605.244690,425.812561 
	C606.591248,415.476227 607.860596,405.129791 609.196716,394.534576 
	C601.516663,393.476318 594.611450,395.002533 587.736511,395.625275 
	C558.066345,398.313019 528.421875,401.294800 498.783325,404.318848 
	C474.759674,406.769989 450.952087,410.788300 427.114319,414.570557 
	C424.490906,414.986786 422.713654,416.414429 421.051514,418.499756 
	C398.057190,447.349365 373.232056,474.516022 345.661194,499.067230 
	C300.658569,539.141052 253.389679,576.306396 201.419464,606.983948 
	C170.833420,625.038635 139.077408,640.967224 104.372917,649.932434 
	C87.471977,654.298340 70.154968,655.469482 52.830551,654.961487 
	C43.955097,654.701233 36.997002,649.628662 31.932079,642.057922 
	C19.389666,623.310303 21.353621,605.227966 32.420567,586.337646 
	C49.538738,557.118469 74.311798,535.728333 100.901077,515.887329 
	C124.545197,498.243988 150.620926,484.885376 177.113907,472.258698 
	C223.799164,450.008270 272.811798,434.580170 323.037415,422.740692 
	C350.922028,416.167633 378.996124,410.592621 407.402466,406.794617 
	C410.322021,406.404266 411.565369,404.276001 413.075500,402.336761 
	C432.060303,377.957062 448.447998,351.908020 463.449005,324.914917 
	C475.513397,303.205994 487.539978,281.503754 497.150635,258.561096 
	C498.102905,256.287903 498.933716,253.963837 499.836578,251.622650 
	C497.529633,249.518814 494.894104,249.607620 492.543427,249.519241 
	C469.743805,248.662201 446.995544,246.884384 424.190247,246.015778 
	C401.511902,245.151962 378.880920,245.843124 356.238617,246.287094 
	C328.836975,246.824371 301.948700,251.775742 275.052917,256.560516 
	C253.830063,260.336121 233.231964,266.296722 212.987610,273.602570 
	C207.464935,275.595612 202.350494,278.317535 197.431442,281.499451 
	C194.805191,283.198273 193.208374,285.111511 193.948120,288.465485 
	C194.868973,292.640503 192.617783,295.668243 189.053421,296.572876 
	C185.219757,297.545898 182.194336,295.598236 180.527740,291.497986 
	C175.893860,280.097534 177.143494,276.302582 186.085526,267.863739 
	C203.853897,251.095276 226.323029,244.712128 248.951981,239.068527 
	C273.402771,232.970581 298.537659,230.950287 324.096283,228.936218 
M260.848816,456.405151 
	C256.487885,458.059662 252.110764,459.672882 247.768524,461.375092 
	C199.743820,480.201202 154.336639,503.758881 113.971695,536.225708 
	C95.488853,551.092041 78.433762,567.467163 64.251831,586.625244 
	C57.921860,595.176270 54.526848,604.798462 54.152634,615.400391 
	C53.803738,625.285156 58.743889,631.343384 68.673119,632.556152 
	C75.765030,633.422363 82.971863,633.466553 90.092407,632.201965 
	C125.890388,625.844360 158.214676,610.528748 189.707581,593.234497 
	C219.872513,576.669556 247.760788,556.624390 275.096436,535.839294 
	C317.363007,503.701263 357.450043,469.148621 391.822754,428.413727 
	C394.036377,425.790375 396.124390,423.061035 399.212219,419.205658 
	C351.322937,427.977692 305.689972,439.183868 260.848816,456.405151 
z"/>
</svg>